<svg width="27" height="27" viewBox="0 0 27 27" fill="none" xmlns="http://www.w3.org/2000/svg">
<path d="M17.8886 17.7893L18.4324 18.3058L18.4324 18.3058L17.8886 17.7893ZM18.5338 17.11L17.99 16.5935L17.99 16.5935L18.5338 17.11ZM21.9574 16.6349L21.5833 17.2849L21.5833 17.2849L21.9574 16.6349ZM24.664 18.1927L24.2898 18.8428L24.664 18.1927ZM25.4266 23.0752L25.9704 23.5917L25.9704 23.5917L25.4266 23.0752ZM23.4142 25.1939L22.8704 24.6774L22.8704 24.6774L23.4142 25.1939ZM21.5373 26.1985L21.611 26.9449L21.611 26.9449L21.5373 26.1985ZM7.56767 19.8406L8.11146 19.3241L7.56767 19.8406ZM1.49892 6.32897C1.47672 5.91536 1.12342 5.59805 0.709802 5.62025C0.296184 5.64245 -0.0211227 5.99575 0.00107803 6.40937L0.75 6.36917L1.49892 6.32897ZM9.51607 8.97462L10.0599 9.49113L10.0599 9.49113L9.51607 8.97462ZM9.92239 8.54684L10.4662 9.06335L10.4662 9.06335L9.92239 8.54684ZM10.1444 4.56599L10.7568 4.13301L10.7568 4.13301L10.1444 4.56599ZM8.35802 2.03938L7.74563 2.47237L7.74563 2.47237L8.35802 2.03938ZM3.40584 1.09649C3.12057 1.39682 3.13279 1.87154 3.43312 2.1568C3.73344 2.44206 4.20816 2.42985 4.49342 2.12952L3.94963 1.61301L3.40584 1.09649ZM12.1687 14.9966L12.7125 14.4801L12.7125 14.4801L12.1687 14.9966ZM11.7696 24.3036C12.1203 24.524 12.5833 24.4184 12.8037 24.0677C13.0241 23.717 12.9184 23.254 12.5677 23.0336L12.1687 23.6686L11.7696 24.3036ZM17.8419 25.2227C17.4364 25.1379 17.039 25.3977 16.9541 25.8031C16.8692 26.2085 17.129 26.606 17.5344 26.6909L17.6881 25.9568L17.8419 25.2227ZM17.8886 17.7893L18.4324 18.3058L19.0776 17.6265L18.5338 17.11L17.99 16.5935L17.3448 17.2728L17.8886 17.7893ZM21.9574 16.6349L21.5833 17.2849L24.2898 18.8428L24.664 18.1927L25.0381 17.5427L22.3315 15.9849L21.9574 16.6349ZM25.4266 23.0752L24.8828 22.5587L22.8704 24.6774L23.4142 25.1939L23.958 25.7104L25.9704 23.5917L25.4266 23.0752ZM7.56767 19.8406L8.11146 19.3241C2.56674 13.4865 1.61752 8.53859 1.49892 6.32897L0.75 6.36917L0.00107803 6.40937C0.137896 8.95839 1.22211 14.249 7.02388 20.3571L7.56767 19.8406ZM9.51607 8.97462L10.0599 9.49113L10.4662 9.06335L9.92239 8.54684L9.3786 8.03032L8.97228 8.4581L9.51607 8.97462ZM10.1444 4.56599L10.7568 4.13301L8.97041 1.6064L8.35802 2.03938L7.74563 2.47237L9.53203 4.99897L10.1444 4.56599ZM9.51607 8.97462C8.97228 8.4581 8.97159 8.45883 8.97089 8.45957C8.97065 8.45983 8.96994 8.46058 8.96946 8.46109C8.96849 8.46212 8.9675 8.46317 8.96649 8.46426C8.96447 8.46644 8.96236 8.46874 8.96015 8.47116C8.95574 8.47601 8.95098 8.48135 8.94589 8.4872C8.93572 8.49889 8.92426 8.51261 8.91176 8.52839C8.88678 8.55997 8.85767 8.59984 8.82661 8.64837C8.76437 8.74564 8.69482 8.87692 8.63525 9.04434C8.5145 9.38368 8.44335 9.84715 8.53045 10.4416C8.70229 11.6145 9.48189 13.257 11.6249 15.5131L12.1687 14.9966L12.7125 14.4801C10.6692 12.3289 10.1225 10.9604 10.0146 10.2241C9.96183 9.864 10.0125 9.64835 10.0484 9.54721C10.0672 9.49439 10.0848 9.46509 10.0901 9.45685C10.0928 9.45262 10.0925 9.4535 10.088 9.45926C10.0857 9.46215 10.0823 9.46626 10.0777 9.47157C10.0754 9.47423 10.0728 9.47719 10.0698 9.48045C10.0683 9.48208 10.0668 9.48379 10.0651 9.48557C10.0643 9.48646 10.0634 9.48737 10.0625 9.4883C10.0621 9.48876 10.0614 9.48947 10.0612 9.4897C10.0605 9.49041 10.0599 9.49113 9.51607 8.97462ZM12.1687 14.9966L11.6249 15.5131C13.7634 17.7646 15.3341 18.6002 16.4782 18.786C17.0619 18.8808 17.5212 18.8035 17.8587 18.6704C18.0244 18.6051 18.1536 18.5291 18.2484 18.4618C18.2957 18.4283 18.3345 18.3969 18.3649 18.3702C18.3802 18.3568 18.3934 18.3446 18.4046 18.3338C18.4102 18.3283 18.4153 18.3233 18.4199 18.3186C18.4223 18.3163 18.4245 18.3141 18.4265 18.3119C18.4276 18.3108 18.4286 18.3098 18.4295 18.3088C18.43 18.3083 18.4307 18.3075 18.431 18.3073C18.4317 18.3065 18.4324 18.3058 17.8886 17.7893C17.3448 17.2728 17.3455 17.2721 17.3462 17.2714C17.3464 17.2711 17.3471 17.2704 17.3475 17.27C17.3484 17.269 17.3492 17.2681 17.3501 17.2673C17.3518 17.2655 17.3534 17.2639 17.355 17.2623C17.3581 17.2591 17.361 17.2563 17.3635 17.2538C17.3687 17.2489 17.3728 17.2452 17.3758 17.2425C17.3817 17.2373 17.3834 17.2364 17.3806 17.2383C17.3752 17.2421 17.3519 17.2579 17.3084 17.275C17.2275 17.3069 17.0418 17.3579 16.7187 17.3054C16.0495 17.1967 14.7602 16.636 12.7125 14.4801L12.1687 14.9966ZM8.35802 2.03938L8.97042 1.6064C7.63892 -0.276812 4.9964 -0.578073 3.40584 1.09649L3.94963 1.61301L4.49342 2.12952C5.38064 1.19545 6.91537 1.29809 7.74563 2.47237L8.35802 2.03938ZM23.4142 25.1939L22.8704 24.6774C22.4408 25.1296 21.9621 25.4029 21.4636 25.4521L21.5373 26.1985L21.611 26.9449C22.5728 26.8499 23.3641 26.3357 23.958 25.7104L23.4142 25.1939ZM9.92239 8.54684L10.4662 9.06335C11.7282 7.73474 11.8244 5.64295 10.7568 4.13301L10.1444 4.56599L9.53203 4.99897C10.211 5.95931 10.1185 7.25131 9.3786 8.03032L9.92239 8.54684ZM24.664 18.1927L24.2898 18.8428C25.6219 19.6095 25.8951 21.4929 24.8828 22.5587L25.4266 23.0752L25.9704 23.5917C27.6749 21.7972 27.1822 18.7769 25.0381 17.5427L24.664 18.1927ZM18.5338 17.11L19.0776 17.6265C19.7254 16.9445 20.7349 16.7966 21.5833 17.2849L21.9574 16.6349L22.3315 15.9849C20.8974 15.1594 19.1261 15.3974 17.99 16.5935L18.5338 17.11ZM12.1687 23.6686L12.5677 23.0336C11.1509 22.1432 9.64757 20.9413 8.11146 19.3241L7.56767 19.8406L7.02388 20.3571C8.64172 22.0604 10.2414 23.3433 11.7696 24.3036L12.1687 23.6686ZM21.5373 26.1985L21.4636 25.4521C20.6624 25.5312 19.4049 25.55 17.8419 25.2227L17.6881 25.9568L17.5344 26.6909C19.2677 27.0538 20.6805 27.0367 21.611 26.9449L21.5373 26.1985Z" fill="black"/>
</svg>
