<svg width="34" height="34" viewBox="0 0 34 34" fill="none" xmlns="http://www.w3.org/2000/svg">
<path d="M14.3438 12.5729C14.3438 11.1059 15.533 9.91667 17 9.91667C18.467 9.91667 19.6562 11.1059 19.6562 12.5729C19.6562 13.5468 19.1321 14.3983 18.3506 14.8607C17.6772 15.2591 17 15.8634 17 16.6458V18.4167" stroke="currentColor" stroke-width="1.5" stroke-linecap="round"/>
<path d="M17.0005 21.75C17.5066 21.7502 17.9165 22.1608 17.9165 22.667C17.9163 23.173 17.5065 23.5828 17.0005 23.583C16.4943 23.583 16.0837 23.1731 16.0835 22.667C16.0835 22.1607 16.4942 21.75 17.0005 21.75Z" fill="currentColor" stroke="currentColor"/>
<path d="M9.91683 4.72858C12.0006 3.5232 14.4198 2.83333 17.0002 2.83333C24.8242 2.83333 31.1668 9.17596 31.1668 17C31.1668 24.824 24.8242 31.1667 17.0002 31.1667C9.17613 31.1667 2.8335 24.824 2.8335 17C2.8335 14.4196 3.52337 12.0004 4.72874 9.91666" stroke="currentColor" stroke-width="1.5" stroke-linecap="round"/>
</svg>
