<svg width="34" height="34" viewBox="0 0 34 34" fill="none" xmlns="http://www.w3.org/2000/svg">
<ellipse cx="16.9998" cy="12.75" rx="2.83333" ry="2.83333" stroke="currentColor" stroke-width="1.5"/>
<path d="M22.6668 21.25C22.6668 22.8148 22.6668 24.0833 17.0002 24.0833C11.3335 24.0833 11.3335 22.8148 11.3335 21.25C11.3335 19.6852 13.8705 18.4167 17.0002 18.4167C20.1298 18.4167 22.6668 19.6852 22.6668 21.25Z" stroke="currentColor" stroke-width="1.5"/>
<path d="M4.25 14.7569C4.25 10.227 4.25 7.96206 4.78481 7.20007C5.31963 6.43809 7.44929 5.7091 11.7086 4.25112L12.5201 3.97334C14.7404 3.21333 15.8505 2.83333 17 2.83333C18.1495 2.83333 19.2596 3.21333 21.4799 3.97334L22.2914 4.25112C26.5507 5.7091 28.6804 6.43809 29.2152 7.20007C29.75 7.96206 29.75 10.227 29.75 14.7569C29.75 15.4412 29.75 16.1832 29.75 16.9878C29.75 20.5365 28.5646 23.2736 26.9167 25.3642M4.52319 19.8333C5.73786 25.9227 10.7333 29.0599 14.023 30.497C15.045 30.9434 15.556 31.1667 17 31.1667C18.444 31.1667 18.955 30.9434 19.977 30.497C20.7961 30.1392 21.7208 29.676 22.6667 29.0882" stroke="currentColor" stroke-width="1.5" stroke-linecap="round"/>
</svg>
