<svg width="34" height="34" viewBox="0 0 34 34" fill="none" xmlns="http://www.w3.org/2000/svg">
<path d="M18.5396 30.2992L19.185 30.6812L18.5396 30.2992ZM19.3076 29.0018L18.6621 28.6197L19.3076 29.0018ZM14.6927 29.0018L14.0473 29.3838L14.6927 29.0018ZM15.4607 30.2992L16.1061 29.9172L15.4607 30.2992ZM3.37268 22.544L4.06559 22.257H4.06559L3.37268 22.544ZM11.0354 26.9046L11.0225 27.6544L11.0354 26.9046ZM7.20616 26.3775L6.91914 27.0704H6.91914L7.20616 26.3775ZM30.6276 22.544L31.3206 22.831L30.6276 22.544ZM22.9649 26.9046L22.9519 26.1547H22.9519L22.9649 26.9046ZM26.7942 26.3775L27.0812 27.0704H27.0812L26.7942 26.3775ZM27.7845 3.87713L27.3927 4.51661L27.7845 3.87713ZM30.123 6.21563L30.7625 5.82376V5.82376L30.123 6.21563ZM6.2158 3.87713L5.82392 3.23765V3.23765L6.2158 3.87713ZM3.8773 6.21563L3.23781 5.82376H3.23781L3.8773 6.21563ZM13.3208 27.2139L13.6979 26.5656L13.6979 26.5656L13.3208 27.2139ZM18.5396 30.2992L19.185 30.6812L19.953 29.3838L19.3076 29.0018L18.6621 28.6197L17.8942 29.9172L18.5396 30.2992ZM14.6927 29.0018L14.0473 29.3838L14.8153 30.6812L15.4607 30.2992L16.1061 29.9172L15.3381 28.6197L14.6927 29.0018ZM18.5396 30.2992L17.8942 29.9172C17.5001 30.583 16.5002 30.583 16.1061 29.9172L15.4607 30.2992L14.8153 30.6812C15.7902 32.3283 18.2101 32.3283 19.185 30.6812L18.5396 30.2992ZM14.8752 2.83333V3.58333H19.1252V2.83333V2.08333H14.8752V2.83333ZM31.1668 14.875H30.4168V16.2917H31.1668H31.9168V14.875H31.1668ZM2.8335 16.2917H3.5835V14.875H2.8335H2.0835V16.2917H2.8335ZM2.8335 16.2917H2.0835C2.0835 17.9316 2.08309 19.1991 2.15263 20.2184C2.22264 21.2444 2.36602 22.0735 2.67977 22.831L3.37268 22.544L4.06559 22.257C3.84016 21.7128 3.71395 21.0659 3.64915 20.1163C3.5839 19.1599 3.5835 17.9521 3.5835 16.2917H2.8335ZM11.0354 26.9046L11.0483 26.1547C9.26981 26.124 8.28393 26.0121 7.49317 25.6846L7.20616 26.3775L6.91914 27.0704C7.99924 27.5178 9.24413 27.6238 11.0225 27.6544L11.0354 26.9046ZM3.37268 22.544L2.67977 22.831C3.47481 24.7504 4.99976 26.2753 6.91914 27.0704L7.20616 26.3775L7.49317 25.6846C5.94132 25.0418 4.70839 23.8088 4.06559 22.257L3.37268 22.544ZM31.1668 16.2917H30.4168C30.4168 17.9521 30.4164 19.1599 30.3512 20.1163C30.2864 21.0659 30.1602 21.7128 29.9347 22.257L30.6276 22.544L31.3206 22.831C31.6343 22.0735 31.7777 21.2444 31.8477 20.2184C31.9172 19.1991 31.9168 17.9316 31.9168 16.2917H31.1668ZM22.9649 26.9046L22.9778 27.6544C24.7562 27.6238 26.0011 27.5178 27.0812 27.0704L26.7942 26.3775L26.5072 25.6846C25.7164 26.0121 24.7305 26.124 22.9519 26.1547L22.9649 26.9046ZM30.6276 22.544L29.9347 22.257C29.2919 23.8088 28.059 25.0418 26.5072 25.6846L26.7942 26.3775L27.0812 27.0704C29.0006 26.2753 30.5255 24.7504 31.3206 22.831L30.6276 22.544ZM19.1252 2.83333V3.58333C21.4584 3.58333 23.1556 3.58412 24.4841 3.71044C25.8015 3.83569 26.6786 4.07906 27.3927 4.51661L27.7845 3.87713L28.1764 3.23765C27.1871 2.6314 26.0533 2.35287 24.6261 2.21717C23.2101 2.08254 21.4293 2.08333 19.1252 2.08333V2.83333ZM31.1668 14.875H31.9168C31.9168 12.5708 31.9176 10.7901 31.783 9.37406C31.6473 7.9469 31.3688 6.81307 30.7625 5.82376L30.123 6.21563L29.4835 6.6075C29.9211 7.32152 30.1645 8.19868 30.2897 9.51604C30.416 10.8446 30.4168 12.5418 30.4168 14.875H31.1668ZM27.7845 3.87713L27.3927 4.51661C28.2448 5.03883 28.9613 5.75532 29.4835 6.6075L30.123 6.21563L30.7625 5.82376C30.1166 4.76974 29.2304 3.88355 28.1764 3.23765L27.7845 3.87713ZM14.8752 2.83333V2.08333C12.571 2.08333 10.7902 2.08254 9.37423 2.21717C7.94707 2.35287 6.81323 2.6314 5.82392 3.23765L6.2158 3.87713L6.60767 4.51661C7.32169 4.07906 8.19885 3.83569 9.51621 3.71044C10.8447 3.58412 12.542 3.58333 14.8752 3.58333V2.83333ZM2.8335 14.875H3.5835C3.5835 12.5418 3.58429 10.8446 3.7106 9.51604C3.83586 8.19868 4.07923 7.32152 4.51678 6.6075L3.8773 6.21563L3.23781 5.82376C2.63156 6.81307 2.35303 7.9469 2.21734 9.37406C2.0827 10.7901 2.0835 12.5708 2.0835 14.875H2.8335ZM6.2158 3.87713L5.82392 3.23765C4.76991 3.88355 3.88372 4.76974 3.23781 5.82376L3.8773 6.21563L4.51678 6.6075C5.03899 5.75532 5.75549 5.03883 6.60767 4.51661L6.2158 3.87713ZM14.6927 29.0018L15.3381 28.6197C15.0475 28.1287 14.8036 27.7151 14.5689 27.393C14.325 27.0584 14.0585 26.7754 13.6979 26.5656L13.3208 27.2139L12.9437 27.8623C13.0615 27.9307 13.1831 28.0385 13.3567 28.2765C13.5394 28.5273 13.7422 28.8684 14.0473 29.3838L14.6927 29.0018ZM11.0354 26.9046L11.0225 27.6544C11.6387 27.6651 12.0497 27.6729 12.3679 27.7081C12.6722 27.7418 12.8284 27.7952 12.9437 27.8623L13.3208 27.2139L13.6979 26.5656C13.3347 26.3544 12.9506 26.2635 12.533 26.2172C12.1292 26.1725 11.6367 26.1648 11.0483 26.1547L11.0354 26.9046ZM19.3076 29.0018L19.953 29.3838C20.258 28.8684 20.4609 28.5273 20.6436 28.2765C20.8171 28.0385 20.9388 27.9307 21.0566 27.8623L20.6795 27.2139L20.3024 26.5656C19.9418 26.7754 19.6753 27.0584 19.4314 27.393C19.1967 27.7151 18.9528 28.1287 18.6621 28.6197L19.3076 29.0018ZM22.9649 26.9046L22.9519 26.1547C22.3635 26.1648 21.871 26.1725 21.4673 26.2172C21.0496 26.2635 20.6655 26.3544 20.3024 26.5656L20.6795 27.2139L21.0566 27.8623C21.1718 27.7952 21.3281 27.7418 21.6324 27.7081C21.9506 27.6729 22.3615 27.6651 22.9778 27.6544L22.9649 26.9046Z" fill="currentColor"/>
<path d="M11.3335 12.75H22.6668" stroke="currentColor" stroke-width="1.5" stroke-linecap="round"/>
<path d="M11.3335 17.7083H19.1252" stroke="currentColor" stroke-width="1.5" stroke-linecap="round"/>
</svg>
