<svg width="28" height="23" viewBox="0 0 28 23" fill="none" xmlns="http://www.w3.org/2000/svg">
<path d="M16.5024 1.40625C16.9953 0.96875 17.4163 0.75 17.9016 0.75C18.8179 0.75 19.505 1.52975 20.8791 3.08925L24.2585 6.92463C26.0859 8.99861 26.9996 10.0356 26.9996 11.25C26.9996 12.4644 26.0859 13.5014 24.2585 15.5754L20.8791 19.4108C19.505 20.9703 18.8179 21.75 17.9016 21.75C17.4163 21.75 16.9953 21.5312 16.5024 21.0937" stroke="currentColor" stroke-width="1.5" stroke-linecap="round"/>
<path d="M6.93075 3.08925C8.31836 1.52975 9.01217 0.75 9.9375 0.75C10.8628 0.75 11.5566 1.52975 12.9442 3.08925L16.3569 6.92463C18.2023 8.99861 19.125 10.0356 19.125 11.25C19.125 12.4644 18.2023 13.5014 16.3569 15.5754L12.9443 19.4107C11.5566 20.9702 10.8628 21.75 9.9375 21.75C9.01217 21.75 8.31836 20.9702 6.93075 19.4108L3.51809 15.5754C1.6727 13.5014 0.75 12.4644 0.75 11.25C0.75 10.0356 1.6727 8.99861 3.51809 6.92463L6.93075 3.08925Z" stroke="currentColor" stroke-width="1.5"/>
</svg>
