<svg width="34" height="34" viewBox="0 0 34 34" fill="none" xmlns="http://www.w3.org/2000/svg">
<circle cx="17" cy="17" r="4.25" stroke="currentColor" stroke-width="1.5"/>
<path d="M5.18693 15.0722C5.85637 15.4928 6.28711 16.2093 6.28711 16.9999C6.2871 17.7905 5.85636 18.5071 5.18693 18.9277C4.73139 19.2139 4.43789 19.4427 4.22906 19.7148C3.77161 20.311 3.56972 21.0644 3.66781 21.8095C3.74137 22.3682 4.07141 22.9399 4.73149 24.0832C5.39158 25.2265 5.72162 25.7981 6.16874 26.1412C6.76491 26.5987 7.51837 26.8006 8.26339 26.7025C8.60344 26.6577 8.94827 26.5179 9.42381 26.2666C10.1229 25.8971 10.9589 25.8824 11.6437 26.2778C12.3284 26.6731 12.7336 27.4045 12.7631 28.1946C12.7832 28.7322 12.8346 29.1007 12.9659 29.4176C13.2534 30.1119 13.805 30.6634 14.4993 30.951C15.02 31.1667 15.68 31.1667 17.0002 31.1667C18.3204 31.1667 18.9805 31.1667 19.5011 30.951C20.1954 30.6634 20.747 30.1119 21.0345 29.4176C21.1658 29.1007 21.2172 28.7322 21.2373 28.1946C21.2668 27.4045 21.672 26.6731 22.3567 26.2778C23.0415 25.8825 23.8774 25.8973 24.5765 26.2667C25.0521 26.5181 25.3969 26.6579 25.737 26.7026C26.482 26.8007 27.2355 26.5988 27.8316 26.1414C28.2788 25.7983 28.6088 25.2266 29.2689 24.0833C29.5628 23.5743 29.7912 23.1786 29.9608 22.8469M28.8134 18.9278C28.144 18.5072 27.7133 17.7907 27.7132 17.0001C27.7132 16.2094 28.1439 15.4928 28.8134 15.0722C29.2689 14.786 29.5624 14.5572 29.7712 14.2851C30.2286 13.6889 30.4305 12.9355 30.3324 12.1905C30.2589 11.6317 29.9288 11.06 29.2687 9.91675C28.6087 8.77345 28.2786 8.2018 27.8315 7.85871C27.2353 7.40126 26.4819 7.19937 25.7368 7.29745C25.3968 7.34222 25.0519 7.482 24.5763 7.73336C23.8773 8.10283 23.0413 8.11757 22.3566 7.7222C21.672 7.32687 21.2668 6.59558 21.2373 5.80555C21.2172 5.26791 21.1658 4.89934 21.0345 4.58241C20.747 3.88816 20.1954 3.33658 19.5011 3.04902C18.9805 2.83334 18.3204 2.83334 17.0002 2.83334C15.68 2.83334 15.0199 2.83334 14.4993 3.04902C13.805 3.33658 13.2534 3.88816 12.9659 4.58241C12.8346 4.89931 12.7832 5.26785 12.7631 5.80542C12.7336 6.59553 12.3284 7.32688 11.6437 7.72221C10.9589 8.11754 10.123 8.10277 9.42394 7.7333C8.94834 7.48193 8.60348 7.34215 8.2634 7.29738C7.51839 7.1993 6.76492 7.40119 6.16876 7.85864C5.72163 8.20173 5.39159 8.77338 4.73151 9.91668C4.43764 10.4257 4.20919 10.8214 4.03966 11.153" stroke="currentColor" stroke-width="1.5" stroke-linecap="round"/>
</svg>
